<svg width="31" height="25" viewBox="0 0 31 25" fill="none" xmlns="http://www.w3.org/2000/svg">
<path id="Vector" d="M30.0137 2.94118C28.9095 3.45588 27.7192 3.79412 26.4859 3.95588C27.7479 3.17647 28.723 1.94118 29.1819 0.455882C27.9917 1.19118 26.6724 1.70588 25.2814 2C24.1485 0.735294 22.5567 0 20.7498 0C17.3798 0 14.6265 2.82353 14.6265 6.30882C14.6265 6.80882 14.6838 7.29412 14.7842 7.75C9.67907 7.48529 5.13318 4.97059 2.10736 1.16176C1.57677 2.08824 1.27562 3.17647 1.27562 4.32353C1.27562 6.51471 2.35115 8.45588 4.01463 9.55882C2.99646 9.55882 2.05 9.26471 1.21826 8.82353V8.86765C1.21826 11.9265 3.34063 14.4853 6.15134 15.0588C5.24894 15.3121 4.30157 15.3473 3.38365 15.1618C3.77315 16.4154 4.53595 17.5124 5.56484 18.2984C6.59373 19.0845 7.83697 19.5201 9.11979 19.5441C6.94526 21.3095 4.2498 22.2637 1.47639 22.25C0.988815 22.25 0.501244 22.2206 0.0136719 22.1618C2.73834 23.9559 5.97926 25 9.44962 25C20.7498 25 26.9592 15.3824 26.9592 7.04412C26.9592 6.76471 26.9592 6.5 26.9448 6.22059C28.1494 5.33823 29.1819 4.22059 30.0137 2.94118Z" fill="#008269"/>
</svg>
