<svg width="31" height="30" viewBox="0 0 31 30" fill="none" xmlns="http://www.w3.org/2000/svg">
<path id="Vector" d="M26.6803 0C27.5644 0 28.4122 0.351189 29.0374 0.976311C29.6625 1.60143 30.0137 2.44928 30.0137 3.33333V26.6667C30.0137 27.5507 29.6625 28.3986 29.0374 29.0237C28.4122 29.6488 27.5644 30 26.6803 30H3.34701C2.46295 30 1.6151 29.6488 0.989982 29.0237C0.364861 28.3986 0.0136719 27.5507 0.0136719 26.6667V3.33333C0.0136719 2.44928 0.364861 1.60143 0.989982 0.976311C1.6151 0.351189 2.46295 0 3.34701 0H26.6803ZM25.847 25.8333V17C25.847 15.559 25.2746 14.177 24.2556 13.1581C23.2367 12.1391 21.8547 11.5667 20.4137 11.5667C18.997 11.5667 17.347 12.4333 16.547 13.7333V11.8833H11.897V25.8333H16.547V17.6167C16.547 16.3333 17.5803 15.2833 18.8637 15.2833C19.4825 15.2833 20.076 15.5292 20.5136 15.9668C20.9512 16.4043 21.197 16.9978 21.197 17.6167V25.8333H25.847ZM6.48034 9.26667C7.22294 9.26667 7.93514 8.97167 8.46024 8.44657C8.98534 7.92146 9.28034 7.20927 9.28034 6.46667C9.28034 4.91667 8.03034 3.65 6.48034 3.65C5.73331 3.65 5.01688 3.94675 4.48865 4.47498C3.96043 5.00321 3.66367 5.71964 3.66367 6.46667C3.66367 8.01667 4.93034 9.26667 6.48034 9.26667ZM8.79701 25.8333V11.8833H4.18034V25.8333H8.79701Z" fill="#008269"/>
</svg>
